<?xml version="1.0" encoding="UTF-8" standalone="no"?>
<svg width="292px" height="123px" viewBox="0 0 292 123" version="1.1" xmlns="http://www.w3.org/2000/svg" xmlns:xlink="http://www.w3.org/1999/xlink">
    <!-- Generator: Sketch 46 (44423) - http://www.bohemiancoding.com/sketch -->
    <title>logo</title>
    <desc>Created with Sketch.</desc>
    <defs>
        <linearGradient x1="90.8367422%" y1="5.28963203%" x2="9.16597046%" y2="95.9726832%" id="linearGradient-1">
            <stop stop-color="#F6BC2D" offset="0%"></stop>
            <stop stop-color="#DF548E" offset="51.8494898%"></stop>
            <stop stop-color="#873787" offset="100%"></stop>
        </linearGradient>
    </defs>
    <g id="Page-1" stroke="none" stroke-width="1" fill="none" fill-rule="evenodd">
        <g id="logo">
            <g id="Group-2" transform="translate(4.000000, 4.000000)">
                <g id="Group" stroke-width="8.39999962" stroke="url(#linearGradient-1)">
                    <polyline id="Path-4" points="96.4770468 0 0 2.72645713e-14 3.03931966e-15 114.722301 143.276552 114.722301"></polyline>
                    <polyline id="Path-4" points="187.696565 114.722301 284.173611 114.722301 284.173611 0 140.897059 0"></polyline>
                </g>
                <path d="M79.982399,72.5639982 L93.8423983,37.2839998 L84.6191987,37.2839998 L75.5975992,63.2399986 L66.5759996,37.2839998 L57,37.2839998 L70.7087994,72.5639982 L79.982399,72.5639982 Z M101.503198,33 C98.8319981,33 96.9167982,34.9151999 96.9167982,37.5863998 C96.9167982,40.3079997 98.8319981,42.2231996 101.503198,42.2231996 C104.174398,42.2231996 106.089598,40.3079997 106.089598,37.5863998 C106.089598,34.9151999 104.174398,33 101.503198,33 Z M105.787198,72.5639982 L105.787198,45.3983994 L97.1183982,45.3983994 L97.1183982,72.5639982 L105.787198,72.5639982 Z M140.159996,35.1671999 L140.159996,72.5639982 L131.440797,72.5639982 L131.440797,68.9855984 C129.525597,71.5055983 126.753597,72.9167982 123.275997,72.9167982 C115.615197,72.9167982 110.575198,67.2719984 110.575198,58.8551988 C110.575198,50.5391992 115.564797,45.0455995 123.074397,45.0455995 C126.652797,45.0455995 129.525597,46.4567994 131.440797,48.9767993 L131.440797,35.1671999 L140.159996,35.1671999 Z M125.392797,66.1631985 C129.021597,66.1631985 131.440797,63.2399986 131.440797,59.0567988 C131.440797,54.873599 129.021597,52.0007991 125.392797,52.0007991 C121.763997,52.0007991 119.344797,54.873599 119.294397,59.0567988 C119.344797,63.2399986 121.763997,66.1631985 125.392797,66.1631985 Z M157.094395,44.9951995 C150.794396,44.9951995 146.056796,48.0191993 146.056796,53.6135991 C146.006396,63.1391986 160.067995,61.0727987 160.067995,65.0543985 C160.067995,66.3143985 158.807995,66.9191985 157.094395,66.9191985 C154.070396,66.9191985 150.542396,65.7095985 147.467996,63.5423986 L144.695996,69.0863984 C147.971996,71.6063982 152.356796,72.9167982 156.892795,72.9167982 C163.444795,72.9167982 168.333595,69.8423983 168.333595,64.2479986 C168.383995,54.772799 154.070396,56.5871989 154.070396,52.8575991 C154.070396,51.5975992 155.179196,50.9927992 156.741595,50.9927992 C159.009595,50.9927992 162.033595,51.9503991 165.309595,53.7143991 L168.283195,48.0695993 C164.956795,46.1039994 161.025595,44.9951995 157.094395,44.9951995 Z M185.116794,45.0959995 C194.692794,45.0959995 199.430394,51.3959992 198.825594,61.3247987 L179.723994,61.3247987 C180.580794,64.5503986 182.899194,66.3647985 186.124794,66.3647985 C188.493594,66.3647985 190.811994,65.4071985 192.626394,63.5927986 L197.212794,68.0783984 C194.440794,71.1023983 190.358394,72.8663982 185.368794,72.8663982 C176.498395,72.8663982 170.954395,67.3223984 170.954395,59.0567988 C170.954395,50.6399992 176.699995,45.0959995 185.116794,45.0959995 Z M179.572794,56.6375989 L190.459194,56.6375989 C190.459194,53.3111991 188.342394,51.1439992 185.217594,51.1439992 C182.193594,51.1439992 180.127194,53.3615991 179.572794,56.6375989 Z M228.763192,45.3983994 L217.019993,75.3863981 C215.003993,80.3255979 211.576793,82.7447977 206.536793,82.7447977 C203.512793,82.7447977 201.043193,81.8375978 198.623994,79.9727979 L202.252793,74.0255981 C203.512793,75.0335981 204.571193,75.4871981 205.831193,75.4871981 C207.393593,75.4871981 208.502393,74.7815981 209.207993,73.3199982 L209.863193,71.9591982 L198.573594,45.3983994 L207.544793,45.3983994 L214.197593,63.4415986 L220.094393,45.3983994 L228.763192,45.3983994 Z" id="Vidsey" fill="url(#linearGradient-1)"></path>
            </g>
        </g>
    </g>
</svg>